/* XPM */
static char *asd[] = {
"32 32 4 1",
".		 	c	 	#00ff00",
",  c #ff0000 m white s heheh",
"# c #0000ff",
"] c #00ff00",
"........,,,,,,,,########]]]]]]]]",
"........,,,,,,,,########]]]]]]]]",
"........,,,,,,,,########]]]]]]]]",
"........,,,,,,,,########]]]]]]]]",
"........,,,,,,,,########]]]]]]]]",
"........,,,,,,,,########]]]]]]]]",
"........,,,,,,,,########]]]]]]]]",
"........,,,,,,,,########]]]]]]]]",
"........,,,,,,,,########]]]]]]]]",
"........,,,,,,,,########]]]]]]]]",
"........,,,,,,,,########]]]]]]]]",
"........,,,,,,,,########]]]]]]]]",
"........,,,,,,,,########]]]]]]]]",
"........,,,,,,,,########]]]]]]]]",
"........,,,,,,,,########]]]]]]]]",
"........,,,,,,,,########]]]]]]]]",
"........,,,,,,,,########]]]]]]]]",
"........,,,,,,,,########]]]]]]]]",
"........,,,,,,,,########]]]]]]]]",
"........,,,,,,,,########]]]]]]]]",
"........,,,,,,,,########]]]]]]]]",
"........,,,,,,,,########]]]]]]]]",
"........,,,,,,,,########]]]]]]]]",
"........,,,,,,,,########]]]]]]]]",
"........,,,,,,,,########]]]]]]]]",
"........,,,,,,,,########]]]]]]]]",
"........,,,,,,,,########]]]]]]]]",
"........,,,,,,,,########]]]]]]]]",
"........,,,,,,,,########]]]]]]]]",
"........,,,,,,,,########]]]]]]]]",
"........,,,,,,,,########]]]]]]]]",
"........,,,,,,,,########]]]]]]]]",
};
